<svg xmlns="http://www.w3.org/2000/svg" viewBox="0 0 20.652 11.313">
  <defs>
    <style>
      .cls-1 {
        fill: #1f1f1f;
      }
    </style>
  </defs>
  <path id="Path_11" data-name="Path 11" class="cls-1" d="M12.855,46.262l.021,0-16.145-.082L-.4,43.314a.746.746,0,0,0,.217-.529A.744.744,0,0,0-.4,42.256L-.85,41.81a.739.739,0,0,0-.526-.218.739.739,0,0,0-.526.217l-4.911,4.911a.738.738,0,0,0-.217.528.738.738,0,0,0,.217.529L-1.9,52.688a.739.739,0,0,0,.526.217.74.74,0,0,0,.526-.217l.446-.446a.738.738,0,0,0,.217-.526A.716.716,0,0,0-.4,51.2l-2.9-2.888,16.167.082a.772.772,0,0,0,.755-.764V47A.757.757,0,0,0,12.855,46.262Z" transform="translate(13.62 52.906) rotate(180)"/>
</svg>
