<svg xmlns="http://www.w3.org/2000/svg" viewBox="0 0 31.146 31.146">
  <defs>
    <style>
      .cls-1 {
        fill: #fff;
        stroke: #f7f7f7;
      }

      .cls-2 {
        fill: #0d0d0d;
      }

      .cls-3 {
        stroke: none;
      }

      .cls-4 {
        fill: none;
      }
    </style>
  </defs>
  <g id="Group_345" data-name="Group 345" transform="translate(-1219.567 -5391.854)">
    <g id="Ellipse_10" data-name="Ellipse 10" class="cls-1" transform="translate(1219.567 5391.854)">
      <ellipse class="cls-3" cx="15.573" cy="15.573" rx="15.573" ry="15.573"/>
      <ellipse class="cls-4" cx="15.573" cy="15.573" rx="15.073" ry="15.073"/>
    </g>
    <g id="facebook-logo" transform="translate(1208.95 5399.591)">
      <path id="Path_4" data-name="Path 4" class="cls-2" d="M29.85,0,27.913,0A3.4,3.4,0,0,0,24.33,3.677v1.7H22.382a.3.3,0,0,0-.3.3V8.133a.3.3,0,0,0,.3.3H24.33v6.2a.3.3,0,0,0,.3.3h2.542a.3.3,0,0,0,.3-.3v-6.2h2.278a.3.3,0,0,0,.3-.3V5.677a.3.3,0,0,0-.3-.3H27.48V3.935c0-.691.165-1.041,1.064-1.041H29.85a.3.3,0,0,0,.3-.3V.308A.3.3,0,0,0,29.85,0Z" transform="translate(0)"/>
    </g>
  </g>
</svg>
