<svg xmlns="http://www.w3.org/2000/svg" viewBox="0 0 31.146 31.146">
  <defs>
    <style>
      .cls-1 {
        fill: #fff;
        stroke: #f7f7f7;
      }

      .cls-2 {
        fill: #0d0d0d;
      }

      .cls-3 {
        stroke: none;
      }

      .cls-4 {
        fill: none;
      }
    </style>
  </defs>
  <g id="Group_346" data-name="Group 346" transform="translate(-1262.21 -5391.854)">
    <g id="Ellipse_11" data-name="Ellipse 11" class="cls-1" transform="translate(1262.21 5391.854)">
      <ellipse class="cls-3" cx="15.573" cy="15.573" rx="15.573" ry="15.573"/>
      <ellipse class="cls-4" cx="15.573" cy="15.573" rx="15.073" ry="15.073"/>
    </g>
    <g id="instagram_1_" data-name="instagram (1)" transform="translate(1269.676 5398.676)">
      <g id="Group_287" data-name="Group 287">
        <g id="Group_286" data-name="Group 286">
          <path id="Path_5" data-name="Path 5" class="cls-2" d="M11.446,0H5.2A5.2,5.2,0,0,0,0,5.2v6.243a5.2,5.2,0,0,0,5.2,5.2h6.243a5.2,5.2,0,0,0,5.2-5.2V5.2A5.2,5.2,0,0,0,11.446,0Zm3.642,11.446a3.646,3.646,0,0,1-3.642,3.642H5.2a3.646,3.646,0,0,1-3.642-3.642V5.2A3.646,3.646,0,0,1,5.2,1.561h6.243A3.646,3.646,0,0,1,15.088,5.2Z"/>
        </g>
      </g>
      <g id="Group_289" data-name="Group 289" transform="translate(4.162 4.162)">
        <g id="Group_288" data-name="Group 288">
          <path id="Path_6" data-name="Path 6" class="cls-2" d="M132.162,128a4.162,4.162,0,1,0,4.162,4.162A4.162,4.162,0,0,0,132.162,128Zm0,6.763a2.6,2.6,0,1,1,2.6-2.6A2.6,2.6,0,0,1,132.162,134.763Z" transform="translate(-128 -128)"/>
        </g>
      </g>
      <g id="Group_291" data-name="Group 291" transform="translate(12.244 3.295)">
        <g id="Group_290" data-name="Group 290">
          <circle id="Ellipse_4" data-name="Ellipse 4" class="cls-2" cx="0.555" cy="0.555" r="0.555"/>
        </g>
      </g>
    </g>
  </g>
</svg>
