<svg xmlns="http://www.w3.org/2000/svg" viewBox="0 0 98.42 137.21"><defs><style>.cls-1{fill:#004a8f;}.cls-2{fill:#00aeef;fill-rule:evenodd;}</style></defs><title>Ресурс 1</title><g id="Слой_2" data-name="Слой 2"><g id="Layer_1" data-name="Layer 1"><path class="cls-1" d="M.7,12.07,2.7.27h3l2.39,6.3L10.65.27h3.06l1.77,11.81H12.42l-.87-6.8L8.7,12.07H7.48L4.75,5.28l-1,6.8Z"/><path class="cls-1" d="M28.94,2.87H25.1v9.21H22V.27h6.9Z"/><path class="cls-1" d="M38.45.27V7.7L42.88.27H46V12.07H42.93V4.64L38.5,12.07H35.37V.27Z"/><path class="cls-1" d="M52.56,12.07l2-11.81h3L60,6.57,62.51.27h3.06l1.77,11.81H64.28l-.87-6.8-2.85,6.8H59.34l-2.73-6.8-1,6.8Z"/><path class="cls-1" d="M84.54,10.59a7.06,7.06,0,0,1-9.31,0,6.18,6.18,0,0,1,0-8.83,7.06,7.06,0,0,1,9.31,0,6.18,6.18,0,0,1,0,8.83Zm-7-6.67a3.23,3.23,0,0,0-.94,2.32,3,3,0,0,0,.94,2.2,3.35,3.35,0,0,0,2.39.94,3.21,3.21,0,0,0,3.33-3.19,3.19,3.19,0,0,0-1-2.27A3.53,3.53,0,0,0,79.88,3,3.4,3.4,0,0,0,77.5,3.91Z"/><path class="cls-1" d="M52.37,45.1a46.31,46.31,0,0,0-5.78.38L52.3,21.61H86.55V15.93H47.82L40.45,46.67,38.91,53.1a40,40,0,0,1,6.24-1.66,40.38,40.38,0,1,1-22,67.51l-1.54,6.43a46.38,46.38,0,0,0,4.92,3.86A46,46,0,1,0,52.37,45.1Z"/><path class="cls-1" d="M26.36,60.46a40.3,40.3,0,0,1,7-4.8L42.9,15.95H0v5.69H35.69Z"/><path class="cls-1" d="M15.25,106.66,8.42,135.09h5.85l5-21A40.21,40.21,0,0,1,15.25,106.66Z"/><path class="cls-2" d="M61.76,56.1A36.42,36.42,0,0,1,80.65,68.36a48.22,48.22,0,0,1-9,3.77c-2.26-7-5.72-12.61-9.88-16ZM70.4,72.5A62.17,62.17,0,0,1,52.54,75a65.57,65.57,0,0,1-18.1-2.3C38.09,62,44.8,54.88,52.45,54.88S66.73,62,70.4,72.5Zm-37.2-.17a45.22,45.22,0,0,1-9.08-3.8,36.43,36.43,0,0,1,19-12.44c-4.2,3.46-7.69,9.17-9.94,16.24ZM81.87,70a36,36,0,0,1,6.85,20H74.5a63,63,0,0,0-2.18-15.57A41.81,41.81,0,0,0,81.87,70ZM73.38,90H31.53a58.09,58.09,0,0,1,2.21-15,62.63,62.63,0,0,0,18.8,2.38,63.2,63.2,0,0,0,18.59-2.54A58.1,58.1,0,0,1,73.38,90Zm-43,0H16.18a36,36,0,0,1,6.65-19.72,42.31,42.31,0,0,0,9.71,4.32A63.09,63.09,0,0,0,30.41,90Zm58.31,2.42a36,36,0,0,1-6.86,20,41.67,41.67,0,0,0-9.54-4.42,62.93,62.93,0,0,0,2.18-15.57ZM71.11,107.57A63.12,63.12,0,0,0,52.54,105a62.65,62.65,0,0,0-18.79,2.37,58,58,0,0,1-2.22-15H73.37a58,58,0,0,1-2.26,15.19Zm-38.57.2a42.17,42.17,0,0,0-9.7,4.31,36,36,0,0,1-6.66-19.71H30.41a62.9,62.9,0,0,0,2.13,15.4ZM80.63,114a36.43,36.43,0,0,1-18.87,12.25c4.16-3.42,7.61-9,9.87-16a48.5,48.5,0,0,1,9,3.76ZM43.14,126.21a36.42,36.42,0,0,1-19-12.42A45.47,45.47,0,0,1,33.2,110c2.26,7.06,5.74,12.76,9.94,16.21Zm-8.69-16.58a65.55,65.55,0,0,1,18.09-2.29,62.21,62.21,0,0,1,17.85,2.49c-3.67,10.53-10.34,17.6-17.94,17.6s-14.34-7.15-18-17.79Z"/></g></g></svg>