<svg xmlns="http://www.w3.org/2000/svg" width="20.651" height="11.313" viewBox="0 0 20.651 11.313">
  <path id="Path_35" data-name="Path 35" d="M12.855,46.262l.021,0L.72,46.206l-3.989-.02L-.4,43.314a.746.746,0,0,0,.217-.529A.744.744,0,0,0-.4,42.256L-.85,41.81a.739.739,0,0,0-.526-.218.739.739,0,0,0-.526.217l-3.232,3.232-1.679,1.679a.738.738,0,0,0-.217.528.738.738,0,0,0,.217.529L-1.9,52.688a.739.739,0,0,0,.526.217.74.74,0,0,0,.526-.217l.446-.446a.738.738,0,0,0,.217-.526A.716.716,0,0,0-.4,51.2l-2.9-2.888,16.167.082a.772.772,0,0,0,.755-.764V47A.757.757,0,0,0,12.855,46.262Z" transform="translate(13.62 52.906) rotate(180)" fill="#eb205e"/>
</svg>
