<svg xmlns="http://www.w3.org/2000/svg" viewBox="0 0 31.146 31.146">
  <defs>
    <style>
      .cls-1 {
        fill: #fff;
        stroke: #f7f7f7;
      }

      .cls-2 {
        fill: #0d0d0d;
        fill-rule: evenodd;
      }

      .cls-3 {
        stroke: none;
      }

      .cls-4 {
        fill: none;
      }
    </style>
  </defs>
  <g id="Group_344" data-name="Group 344" transform="translate(-1178.924 -5391.854)">
    <g id="Ellipse_12" data-name="Ellipse 12" class="cls-1" transform="translate(1178.924 5391.854)">
      <ellipse class="cls-3" cx="15.573" cy="15.573" rx="15.573" ry="15.573"/>
      <ellipse class="cls-4" cx="15.573" cy="15.573" rx="15.073" ry="15.073"/>
    </g>
    <g id="vk" transform="translate(1185.094 5336.943)">
      <path id="XMLID_807_" class="cls-2" d="M15.75,72.643a24.909,24.909,0,0,1,1.792,1.8,5.238,5.238,0,0,1,.642.926c.247.478.023,1-.406,1.033H15.113a2.058,2.058,0,0,1-1.7-.69c-.369-.376-.711-.776-1.066-1.165a2.524,2.524,0,0,0-.48-.426.557.557,0,0,0-.888.216,2.8,2.8,0,0,0-.281,1.244c-.029.628-.218.793-.849.822a6.818,6.818,0,0,1-3.815-.82,8.429,8.429,0,0,1-2.567-2.4A32.355,32.355,0,0,1,.092,67.158c-.213-.475-.057-.73.466-.739.87-.017,1.739-.016,2.61,0a.767.767,0,0,1,.724.542,16.18,16.18,0,0,0,1.769,3.278,2.8,2.8,0,0,0,.668.734.406.406,0,0,0,.69-.2,2.275,2.275,0,0,0,.154-.687,10.239,10.239,0,0,0-.043-2.41,1,1,0,0,0-.855-.919c-.255-.048-.217-.143-.093-.289A.959.959,0,0,1,7,66.058h3.013c.474.094.58.307.645.784l0,3.347c-.005.185.092.733.425.855.266.087.442-.126.6-.295a10.378,10.378,0,0,0,1.7-2.607c.2-.412.38-.84.55-1.267a.645.645,0,0,1,.681-.466l2.9,0a1.53,1.53,0,0,1,.256.016c.489.083.623.293.472.771a7.24,7.24,0,0,1-1.153,2c-.484.669-1,1.315-1.48,1.988-.441.615-.406.924.142,1.458Zm0,0" transform="translate(0)"/>
    </g>
  </g>
</svg>
