<svg xmlns="http://www.w3.org/2000/svg" viewBox="0 0 31.146 31.146">
  <defs>
    <style>
      .cls-1 {
        fill: #fff;
        stroke: #f7f7f7;
      }

      .cls-2 {
        fill: #0d0d0d;
      }

      .cls-3 {
        stroke: none;
      }

      .cls-4 {
        fill: none;
      }
    </style>
  </defs>
  <g id="Group_347" data-name="Group 347" transform="translate(-1304.854 -5391.854)">
    <g id="Ellipse_13" data-name="Ellipse 13" class="cls-1" transform="translate(1304.854 5391.854)">
      <ellipse class="cls-3" cx="15.573" cy="15.573" rx="15.573" ry="15.573"/>
      <ellipse class="cls-4" cx="15.573" cy="15.573" rx="15.073" ry="15.073"/>
    </g>
    <path id="youtube" class="cls-2" d="M14.071,67.393H3.688A3.688,3.688,0,0,0,0,71.081v5.19A3.688,3.688,0,0,0,3.688,79.96H14.071a3.688,3.688,0,0,0,3.688-3.688v-5.19A3.688,3.688,0,0,0,14.071,67.393Zm-2.494,6.536L6.72,76.245a.2.2,0,0,1-.279-.176V71.292a.2.2,0,0,1,.283-.174l4.856,2.461A.2.2,0,0,1,11.576,73.929Z" transform="translate(1312.19 5333.432)"/>
  </g>
</svg>
