<svg xmlns="http://www.w3.org/2000/svg" width="1075.126" height="602" viewBox="0 0 1075.126 602">
  <g id="Group_4465" data-name="Group 4465" transform="translate(-53.937 -119)">
    <text id="_Возвращаемся_к_Крымскому_мосту_._Молодежный_вечер_МГИМО_в_Парке_Горького_и_Фестиваль_живой_музыки_в_Зеленом_театре_Парка" data-name="«Возвращаемся к Крымскому мосту». Молодежный вечер МГИМО в Парке Горького и Фестиваль живой музыки в Зеленом театре Парка" transform="translate(702 430)" fill="#1a2f3f" font-size="20" font-family="PlayfairDisplay-Bold, Playfair Display" font-weight="700"><tspan x="0" y="22">«Возвращаемся к Крымскому мосту». </tspan><tspan x="0" y="49">Молодежный вечер МГИМО в Парке </tspan><tspan x="0" y="76">Горького и Фестиваль живой музыки </tspan><tspan x="0" y="103">в Зеленом театре Парка</tspan></text>
    <text id="XII_Конвент_РАМИ_Мир_регионов_VS._Регионы_мира_" data-name="XII Конвент РАМИ
«Мир регионов VS. Регионы мира»" transform="translate(223.437 655)" fill="#1a2f3f" font-size="20" font-family="PlayfairDisplay-Bold, Playfair Display" font-weight="700"><tspan x="0" y="22">XII </tspan><tspan y="22">Конвент РАМИ</tspan><tspan x="0" y="49">«Мир регионов </tspan><tspan y="49">VS. </tspan><tspan y="49">Регионы мира»</tspan></text>
    <path id="Path_31" data-name="Path 31" d="M5166.346,366.542l1064.78.038V594.927H5163.939l-.387,224.068,649.293.125" transform="translate(-5103.563 -221)" fill="none" stroke="#0054b9" stroke-width="3"/>
    <g id="Group_373" data-name="Group 373" transform="translate(-236.563 -2)">
      <path id="checked" d="M6.91,0a6.91,6.91,0,1,0,6.91,6.91A6.91,6.91,0,0,0,6.91,0Z" transform="translate(292 141)" fill="#fff" stroke="#0054b9" stroke-width="3"/>
    </g>
    <g id="Group_357" data-name="Group 357" transform="translate(410 225)">
      <path id="checked-2" data-name="checked" d="M6.91,0a6.91,6.91,0,1,0,6.91,6.91A6.91,6.91,0,0,0,6.91,0Z" transform="translate(292 141)" fill="#fff" stroke="#0054b9" stroke-width="3"/>
    </g>
    <text id="Июнь_2019_г." data-name="Июнь 2019 г." transform="translate(702 419)" fill="#0054b9" font-size="14" font-family="GraphikLCG-Regular, Graphik LCG"><tspan x="0" y="0">Июнь 2019 г.</tspan></text>
    <g id="Group_357-2" data-name="Group 357" transform="translate(-68.563 225)">
      <path id="checked-3" data-name="checked" d="M6.91,0a6.91,6.91,0,1,0,6.91,6.91A6.91,6.91,0,0,0,6.91,0Z" transform="translate(292 141)" fill="#fff" stroke="#0054b9" stroke-width="3"/>
    </g>
    <text id="_21_22_октября_2019_г." data-name="21 – 22 октября 2019 г." transform="translate(222 644)" fill="#0054b9" font-size="14" font-family="GraphikLCG-Regular, Graphik LCG"><tspan x="0" y="0">21 – 22 октября 2019 г.</tspan></text>
    <text id="Кубок_Ректора_МГИМО_по_гольфу_к_75-летию_МГИМО" data-name="Кубок Ректора МГИМО
по гольфу к 75-летию
МГИМО" transform="translate(835.437 227)" fill="#1a2f3f" font-size="20" font-family="PlayfairDisplay-Bold, Playfair Display" font-weight="700"><tspan x="0" y="0">Кубок Ректора МГИМО</tspan><tspan x="0" y="27">по гольфу к 75-летию</tspan><tspan x="0" y="54">МГИМО</tspan></text>
    <rect id="Rectangle_212" data-name="Rectangle 212" width="131" height="17" transform="translate(923 119)" fill="#fff"/>
    <g id="Group_374" data-name="Group 374" transform="translate(543.437 -2)">
      <path id="checked-4" data-name="checked" d="M6.91,0a6.91,6.91,0,1,0,6.91,6.91A6.91,6.91,0,0,0,6.91,0Z" transform="translate(292 141)" fill="#fff" stroke="#0054b9" stroke-width="3"/>
    </g>
    <text id="_25_мая_2019_г." data-name="25 мая 2019 г." transform="translate(835.437 191)" fill="#0054b9" font-size="14" font-family="GraphikLCG-Regular, Graphik LCG"><tspan x="0" y="0">25 мая 2019 г.</tspan></text>
    <g id="Group_375" data-name="Group 375" transform="translate(157.437 -2)">
      <path id="checked-5" data-name="checked" d="M6.91,0a6.91,6.91,0,1,0,6.91,6.91A6.91,6.91,0,0,0,6.91,0Z" transform="translate(292 141)" fill="#fff" stroke="#0054b9" stroke-width="3"/>
    </g>
    <text id="Арт-выставка_выпускников_МГИМО._О_МГИМО_и_о_Москве_" data-name="Арт-выставка
выпускников МГИМО.
«О МГИМО и о Москве»" transform="translate(223.437 428)" fill="#1a2f3f" font-size="20" font-family="PlayfairDisplay-Bold, Playfair Display" font-weight="700"><tspan x="0" y="22">Арт-выставка</tspan><tspan x="0" y="49">выпускников МГИМО.</tspan><tspan x="0" y="76">«О МГИМО и о Москве»</tspan></text>
    <g id="Group_357-3" data-name="Group 357" transform="translate(82.437 450)">
      <path id="checked-6" data-name="checked" d="M6.91,0a6.91,6.91,0,1,0,6.91,6.91A6.91,6.91,0,0,0,6.91,0Z" transform="translate(141 141)" fill="#fff" stroke="#0054b9" stroke-width="3"/>
    </g>
    <text id="_7_25_октября_2019_г." data-name="7 – 25 октября 2019 г." transform="translate(222 419)" fill="#0054b9" font-size="14" font-family="GraphikLCG-Regular, Graphik LCG"><tspan x="0" y="0">7 – 25 октября 2019 г.</tspan></text>
    <text id="Торжественный_юбилейный_вечер" data-name="Торжественный
юбилейный вечер" transform="translate(702 675)" fill="#1a2f3f" font-size="20" font-family="PlayfairDisplay-Bold, Playfair Display" font-weight="700"><tspan x="0" y="0">Торжественный</tspan><tspan x="0" y="27">юбилейный вечер</tspan></text>
    <g id="Group_357-4" data-name="Group 357" transform="translate(410 450)">
      <path id="checked-7" data-name="checked" d="M6.91,0a6.91,6.91,0,1,0,6.91,6.91A6.91,6.91,0,0,0,6.91,0Z" transform="translate(292 141)" fill="#fff" stroke="#0054b9" stroke-width="3"/>
    </g>
    <text id="_23_октября_2019_г." data-name="23 октября 2019 г." transform="translate(702 644)" fill="#0054b9" font-size="14" font-family="GraphikLCG-Regular, Graphik LCG"><tspan x="0" y="0">23 октября 2019 г.</tspan></text>
    <text id="Международный_форум_выпускников_МГИМО_в_Ташкенте" data-name="Международный форум
выпускников МГИМО
в Ташкенте" transform="translate(449 240)" fill="#1a2f3f" font-size="20" font-family="PlayfairDisplay-Bold, Playfair Display" font-weight="700"><tspan x="0" y="0">Международный форум</tspan><tspan x="0" y="27">выпускников МГИМО</tspan><tspan x="0" y="54">в Ташкенте</tspan></text>
    <text id="_17_19_мая_2019_г." data-name="17 – 19 мая 2019 г." transform="translate(449 204)" fill="#0054b9" font-size="14" font-family="GraphikLCG-Regular, Graphik LCG"><tspan x="0" y="0">17 – 19 мая 2019 г.</tspan></text>
    <text id="Универсиада_МГИМО._Спортивные_поколения_" data-name="Универсиада МГИМО. 
«Спортивные
поколения» " transform="translate(55 240)" fill="#1a2f3f" font-size="20" font-family="PlayfairDisplay-Bold, Playfair Display" font-weight="700"><tspan x="0" y="0">Универсиада МГИМО. </tspan><tspan x="0" y="27">«Спортивные</tspan><tspan x="0" y="54">поколения» </tspan></text>
    <text id="_20_21_апреля_2019_г." data-name="20 – 21 апреля 2019 г." transform="translate(55 204)" fill="#0054b9" font-size="14" font-family="GraphikLCG-Regular, Graphik LCG"><tspan x="0" y="0">20 – 21 апреля 2019 г.</tspan></text>
  </g>
</svg>
