<svg xmlns="http://www.w3.org/2000/svg" width="316.5" height="1123.5" viewBox="0 0 316.5 1123.5">
  <g id="Group_1175" data-name="Group 1175" transform="translate(-31.937 -39.5)">
    <text id="Международный_форум_выпускников_МГИМО_в_Ташкенте" data-name="Международный форум
выпускников МГИМО
в Ташкенте" transform="translate(86 89)" fill="#1a2f3f" font-size="20" font-family="PlayfairDisplay-Bold, Playfair Display" font-weight="700"><tspan x="0" y="0">Международный форум</tspan><tspan x="0" y="27">выпускников МГИМО</tspan><tspan x="0" y="54">в Ташкенте</tspan></text>
    <text id="_12_14_апреля_2019_г." data-name="12 – 14 апреля 2019 г." transform="translate(86 53)" fill="#0054b9" font-size="14" font-family="GraphikLCG-Regular, Graphik LCG"><tspan x="0" y="0">12 – 14 апреля 2019 г.</tspan></text>
    <text id="Универсиада_МГИМО._Спортивные_поколения_" data-name="Универсиада МГИМО. 
«Спортивные
поколения» " transform="translate(86 245)" fill="#1a2f3f" font-size="20" font-family="PlayfairDisplay-Bold, Playfair Display" font-weight="700"><tspan x="0" y="0">Универсиада МГИМО. </tspan><tspan x="0" y="27">«Спортивные</tspan><tspan x="0" y="54">поколения» </tspan></text>
    <text id="_18_19_мая_2019_г." data-name="18 – 19 мая 2019 г." transform="translate(86 209)" fill="#0054b9" font-size="14" font-family="GraphikLCG-Regular, Graphik LCG"><tspan x="0" y="0">18 – 19 мая 2019 г.</tspan></text>
    <path id="Path_791" data-name="Path 791" d="M0,0V1053.5" transform="translate(40.5 42.5)" fill="none" stroke="#0054b9" stroke-width="3"/>
    <g id="Group_1168" data-name="Group 1168" transform="translate(-258.563 -100)">
      <path id="checked" d="M6.91,0a6.91,6.91,0,1,0,6.91,6.91A6.91,6.91,0,0,0,6.91,0Z" transform="translate(292 141)" fill="#fff" stroke="#0054b9" stroke-width="3"/>
    </g>
    <g id="Group_1169" data-name="Group 1169" transform="translate(-258.563 57)">
      <path id="checked-2" data-name="checked" d="M6.91,0a6.91,6.91,0,1,0,6.91,6.91A6.91,6.91,0,0,0,6.91,0Z" transform="translate(292 141)" fill="#fff" stroke="#0054b9" stroke-width="3"/>
    </g>
    <g id="Group_1170" data-name="Group 1170" transform="translate(-258.563 213)">
      <path id="checked-3" data-name="checked" d="M6.91,0a6.91,6.91,0,1,0,6.91,6.91A6.91,6.91,0,0,0,6.91,0Z" transform="translate(292 141)" fill="#fff" stroke="#0054b9" stroke-width="3"/>
    </g>
    <g id="Group_1171" data-name="Group 1171" transform="translate(-258.563 368)">
      <path id="checked-4" data-name="checked" d="M6.91,0a6.91,6.91,0,1,0,6.91,6.91A6.91,6.91,0,0,0,6.91,0Z" transform="translate(292 141)" fill="#fff" stroke="#0054b9" stroke-width="3"/>
    </g>
    <g id="Group_1172" data-name="Group 1172" transform="translate(-258.563 639)">
      <path id="checked-5" data-name="checked" d="M6.91,0a6.91,6.91,0,1,0,6.91,6.91A6.91,6.91,0,0,0,6.91,0Z" transform="translate(292 141)" fill="#fff" stroke="#0054b9" stroke-width="3"/>
    </g>
    <g id="Group_1173" data-name="Group 1173" transform="translate(-258.563 795)">
      <path id="checked-6" data-name="checked" d="M6.91,0a6.91,6.91,0,1,0,6.91,6.91A6.91,6.91,0,0,0,6.91,0Z" transform="translate(292 141)" fill="#fff" stroke="#0054b9" stroke-width="3"/>
    </g>
    <g id="Group_1174" data-name="Group 1174" transform="translate(-258.563 948)">
      <path id="checked-7" data-name="checked" d="M6.91,0a6.91,6.91,0,1,0,6.91,6.91A6.91,6.91,0,0,0,6.91,0Z" transform="translate(292 141)" fill="#fff" stroke="#0054b9" stroke-width="3"/>
    </g>
    <text id="Кубок_Ректора_МГИМО_по_гольфу_к_75-летию_МГИМО" data-name="Кубок Ректора МГИМО
по гольфу к 75-летию
МГИМО" transform="translate(86.437 401)" fill="#1a2f3f" font-size="20" font-family="PlayfairDisplay-Bold, Playfair Display" font-weight="700"><tspan x="0" y="0">Кубок Ректора МГИМО</tspan><tspan x="0" y="27">по гольфу к 75-летию</tspan><tspan x="0" y="54">МГИМО</tspan></text>
    <text id="_24_мая_2019_г." data-name="24 мая 2019 г." transform="translate(86.437 365)" fill="#0054b9" font-size="14" font-family="GraphikLCG-Regular, Graphik LCG"><tspan x="0" y="0">24 мая 2019 г.</tspan></text>
    <text id="_Возвращаемся_к_Крымскому_мосту_._Молодежный_вечер_МГИМО_в_Парке_Горького_и_Фестиваль_живой_музыки_в_Зеленом_театре_Парка" data-name="«Возвращаемся к Крымскому мосту». Молодежный вечер МГИМО в Парке Горького и Фестиваль живой музыки в Зеленом театре Парка" transform="translate(86 532)" fill="#1a2f3f" font-size="20" font-family="PlayfairDisplay-Bold, Playfair Display" font-weight="700"><tspan x="0" y="22">«Возвращаемся к </tspan><tspan x="0" y="49">Крымскому мосту». </tspan><tspan x="0" y="76">Молодежный вечер </tspan><tspan x="0" y="103">МГИМО в Парке Горького </tspan><tspan x="0" y="130">и Фестиваль живой </tspan><tspan x="0" y="157">музыки в Зеленом театре </tspan><tspan x="0" y="184">Парка</tspan></text>
    <text id="Июнь_2019_г." data-name="Июнь 2019 г." transform="translate(86 521)" fill="#0054b9" font-size="14" font-family="GraphikLCG-Regular, Graphik LCG"><tspan x="0" y="0">Июнь 2019 г.</tspan></text>
    <text id="XII_Конвент_РАМИ_Мир_регионов_VS._Регионы_мира_" data-name="XII Конвент РАМИ
«Мир регионов VS. Регионы мира»" transform="translate(87.437 802)" fill="#1a2f3f" font-size="20" font-family="PlayfairDisplay-Bold, Playfair Display" font-weight="700"><tspan x="0" y="22">XII </tspan><tspan y="22">Конвент РАМИ</tspan><tspan x="0" y="49">«Мир регионов </tspan><tspan y="49">VS. </tspan><tspan x="0" y="76">Регионы мира»</tspan></text>
    <text id="Октябрь_2019_г." data-name="Октябрь 2019 г." transform="translate(86 791)" fill="#0054b9" font-size="14" font-family="GraphikLCG-Regular, Graphik LCG"><tspan x="0" y="0">Октябрь 2019 г.</tspan></text>
    <text id="Арт-выставка_выпускников_МГИМО._О_МГИМО_и_о_Москве_" data-name="Арт-выставка выпускников МГИМО. «О МГИМО и о Москве»" transform="translate(88.437 956)" fill="#1a2f3f" font-size="20" font-family="PlayfairDisplay-Bold, Playfair Display" font-weight="700"><tspan x="0" y="22">Арт-выставка </tspan><tspan x="0" y="49">выпускников МГИМО. </tspan><tspan x="0" y="76">«О МГИМО и о Москве»</tspan></text>
    <text id="Октябрь_2019_г.-2" data-name="Октябрь 2019 г." transform="translate(87 947)" fill="#0054b9" font-size="14" font-family="GraphikLCG-Regular, Graphik LCG"><tspan x="0" y="0">Октябрь 2019 г.</tspan></text>
    <text id="Торжественный_юбилейный_вечер" data-name="Торжественный
юбилейный вечер" transform="translate(88 1131)" fill="#1a2f3f" font-size="20" font-family="PlayfairDisplay-Bold, Playfair Display" font-weight="700"><tspan x="0" y="0">Торжественный</tspan><tspan x="0" y="27">юбилейный вечер</tspan></text>
    <text id="_15_октября_2019_г." data-name="15 октября 2019 г." transform="translate(88 1100)" fill="#0054b9" font-size="14" font-family="GraphikLCG-Regular, Graphik LCG"><tspan x="0" y="0">15 октября 2019 г.</tspan></text>
  </g>
</svg>
