<svg xmlns="http://www.w3.org/2000/svg" viewBox="0 0 35.7 35.7">
  <defs>
    <style>
      .cls-1 {
        fill: #fff;
      }
    </style>
  </defs>
  <g id="confetti" transform="translate(0 0.001)">
    <g id="Group_320" data-name="Group 320" transform="translate(0 -0.001)">
      <g id="Group_319" data-name="Group 319" transform="translate(0 0)">
        <path id="Path_14" data-name="Path 14" class="cls-1" d="M24.116,19.652a18.671,18.671,0,0,1,3.971-1.346.7.7,0,1,0-.289-1.364,20.269,20.269,0,0,0-4.583,1.594c-.858-1.023-1.84-2.093-2.9-3.152-1.126-1.126-2.263-2.165-3.344-3.059a15.754,15.754,0,0,0,2.276-3.955A20.668,20.668,0,0,0,20.6.7.7.7,0,0,0,19.21.7a16.846,16.846,0,0,1-3.328,10.76c-.417-.318-.821-.61-1.207-.871-2.066-1.394-3.3-1.72-3.985-1.057l-.015.014,0,0h0a1.147,1.147,0,0,0-.326.645L.054,34.732a.7.7,0,0,0,.913.913h0l24.54-10.291a1.146,1.146,0,0,0,.6-.283l.035-.032.014-.012,0,0,.014-.015c.663-.688.337-1.919-1.057-3.985C24.818,20.587,24.484,20.127,24.116,19.652ZM5.53,30.732a4.691,4.691,0,0,1-.625,1.749L2,33.7l2.951-7.038A7.747,7.747,0,0,1,5.53,30.732Zm4.291-2.359a4.468,4.468,0,0,1-1.239,2.567l-1.837.77a9.132,9.132,0,0,0-1.063-6.792l2.09-4.983C9.94,24.045,10.1,26.769,9.821,28.373Zm2.487,1-1.5.63a7.039,7.039,0,0,0,.361-1.241c.558-2.849-.353-6.371-2.706-10.472l.754-1.8a11.837,11.837,0,0,1,1.553,2.377.7.7,0,1,0,1.281-.551A13.231,13.231,0,0,0,9.81,15.075l1.153-2.749c.2.37.452.776.752,1.221q.31.459.676.95a13.114,13.114,0,0,1,1.865,9.8A14.159,14.159,0,0,1,12.308,29.377Zm5.373-2.253-3.31,1.388a17.576,17.576,0,0,0,1.255-3.961,15.161,15.161,0,0,0-.133-6.41q.5.523,1.019,1.047c1.043,1.043,2.1,2.011,3.1,2.859C19.516,25.338,18.006,26.838,17.681,27.124Zm2.4-1.008a9.419,9.419,0,0,0,.85-3.01c.421.321.829.617,1.218.879.445.3.851.55,1.221.752Zm2.452-3.561A41.315,41.315,0,0,1,17.5,18.2a41.308,41.308,0,0,1-4.354-5.039,8.126,8.126,0,0,1-1.392-2.539,8.129,8.129,0,0,1,2.539,1.392c.217.154.441.319.668.491-.049.05-.1.1-.147.151a.7.7,0,1,0,.986.986q.131-.131.259-.266c1.058.874,2.176,1.9,3.272,2.991.943.943,1.829,1.9,2.615,2.824q-.189.1-.378.214a.7.7,0,1,0,.7,1.208c.194-.112.387-.219.581-.324.3.385.584.759.838,1.117a8.124,8.124,0,0,1,1.392,2.539A8.129,8.129,0,0,1,22.537,22.555Z" transform="translate(0 0.001)"/>
        <path id="Path_15" data-name="Path 15" class="cls-1" d="M163.1,283.045a.7.7,0,1,0,.024.06C163.113,283.086,163.1,283.063,163.1,283.045Z" transform="translate(-150.483 -262.926)"/>
        <path id="Path_16" data-name="Path 16" class="cls-1" d="M370.708,103.822a.7.7,0,0,0,.986,0,9.924,9.924,0,0,1,5.925-2.421.7.7,0,0,0-.112-1.39,11.363,11.363,0,0,0-6.8,2.825A.7.7,0,0,0,370.708,103.822Z" transform="translate(-344.67 -93.036)"/>
        <path id="Path_17" data-name="Path 17" class="cls-1" d="M492.235,101.476l-.06-.016a.7.7,0,1,0-.337,1.353l.036.009a.7.7,0,1,0,.361-1.347Z" transform="translate(-457.051 -94.367)"/>
        <path id="Path_18" data-name="Path 18" class="cls-1" d="M64.2,46.41h.7v.7a.7.7,0,0,0,1.395,0v-.7h.7a.7.7,0,0,0,0-1.395h-.7v-.7a.7.7,0,1,0-1.395,0v.7h-.7a.7.7,0,0,0,0,1.395Z" transform="translate(-59.076 -40.579)"/>
        <path id="Path_19" data-name="Path 19" class="cls-1" d="M298.2,143.408h.7v.7a.7.7,0,1,0,1.395,0v-.7h.7a.7.7,0,0,0,0-1.395h-.7v-.7a.7.7,0,1,0-1.395,0v.7h-.7a.7.7,0,0,0,0,1.395Z" transform="translate(-276.758 -130.814)"/>
        <path id="Path_20" data-name="Path 20" class="cls-1" d="M399.987,399.013h-.7v-.7a.7.7,0,0,0-1.395,0v.7h-.7a.7.7,0,0,0,0,1.395h.7v.7a.7.7,0,0,0,1.395,0v-.7h.7a.7.7,0,0,0,0-1.395Z" transform="translate(-368.854 -369.893)"/>
        <path id="Path_21" data-name="Path 21" class="cls-1" d="M362.061,4.185a2.092,2.092,0,1,0-2.092-2.092A2.094,2.094,0,0,0,362.061,4.185Zm0-2.789a.7.7,0,1,1-.7.7A.7.7,0,0,1,362.061,1.4Z" transform="translate(-334.87 -0.001)"/>
        <path id="Path_22" data-name="Path 22" class="cls-1" d="M424.593,173.619a2.092,2.092,0,1,0,2.092,2.092A2.094,2.094,0,0,0,424.593,173.619Zm0,2.789a.7.7,0,1,1,.7-.7A.7.7,0,0,1,424.593,176.408Z" transform="translate(-393.041 -161.513)"/>
        <path id="Path_23" data-name="Path 23" class="cls-1" d="M170.595,39.8a2.092,2.092,0,1,0-2.092-2.092A2.094,2.094,0,0,0,170.595,39.8Zm0-2.789a.7.7,0,1,1-.7.7A.7.7,0,0,1,170.595,37.015Z" transform="translate(-156.754 -33.136)"/>
        <path id="Path_24" data-name="Path 24" class="cls-1" d="M430.585,284.755a.7.7,0,1,0-.7.7A.7.7,0,0,0,430.585,284.755Z" transform="translate(-399.264 -264.251)"/>
        <path id="Path_25" data-name="Path 25" class="cls-1" d="M325.886,76.455a.7.7,0,1,0-.7-.7A.7.7,0,0,0,325.886,76.455Z" transform="translate(-302.515 -69.826)"/>
        <path id="Path_26" data-name="Path 26" class="cls-1" d="M459.885,359.057a.7.7,0,1,0,.7.7A.7.7,0,0,0,459.885,359.057Z" transform="translate(-427.17 -334.021)"/>
        <path id="Path_27" data-name="Path 27" class="cls-1" d="M129.889,11.4a.7.7,0,1,0-.7-.7A.7.7,0,0,0,129.889,11.4Z" transform="translate(-120.184 -9.304)"/>
      </g>
    </g>
  </g>
</svg>
